<?xml version="1.0" standalone="no"?>
<!DOCTYPE svg PUBLIC "-//W3C//DTD SVG 20010904//EN"
 "http://www.w3.org/TR/2001/REC-SVG-20010904/DTD/svg10.dtd">
<svg version="1.0" xmlns="http://www.w3.org/2000/svg"
 width="160.000000pt" height="160.000000pt" viewBox="0 0 160.000000 160.000000"
 preserveAspectRatio="xMidYMid meet">
<metadata>
Created by potrace 1.11, written by Peter Selinger 2001-2013
</metadata>
<g transform="translate(0.000000,160.000000) scale(0.100000,-0.100000)"
fill="#000000" stroke="none">
<path d="M627 1543 c-11 -10 -8 -111 3 -118 27 -17 43 44 31 118 -1 9 -25 9
-34 0z"/>
<path d="M467 1487 c-3 -7 8 -28 24 -47 16 -18 29 -36 29 -40 0 -14 35 -3 38
11 3 18 -55 89 -73 89 -7 0 -15 -6 -18 -13z"/>
<path d="M754 1464 c-19 -23 -30 -44 -27 -55 5 -18 7 -18 32 -3 35 21 64 62
57 80 -9 23 -29 16 -62 -22z"/>
<path d="M577 1363 c-4 -3 -38 -6 -76 -7 -76 -1 -89 -8 -98 -52 -3 -16 -6
-244 -6 -507 0 -510 1 -520 49 -530 13 -2 136 -4 274 -3 137 1 250 -2 250 -6
0 -3 16 -1 36 5 66 20 67 28 67 318 l-1 259 -35 73 -36 72 -1 -80 c-1 -44 -1
-160 -1 -257 l0 -178 -260 0 -259 0 2 387 3 387 255 -1 255 0 2 -49 c1 -27 2
-66 2 -87 l1 -38 26 20 c15 12 35 21 44 21 16 0 18 12 18 100 0 142 -2 145
-151 146 -62 1 -119 4 -125 8 -6 3 -13 3 -15 -1 -6 -9 -115 -8 -123 0 -3 3
-18 2 -33 -3 -15 -4 -35 -4 -43 1 -8 5 -18 6 -21 2z m91 -61 c4 -28 -24 -41
-44 -20 -20 20 -7 50 20 46 13 -2 22 -12 24 -26z m103 -901 c29 -23 31 -50 5
-73 -24 -22 -44 -23 -68 -1 -24 21 -23 48 2 73 25 25 32 25 61 1z"/>
<path d="M1041 1066 c-21 -25 -15 -61 23 -141 36 -76 50 -118 47 -140 -1 -5
-4 -91 -6 -190 -7 -325 -10 -334 -105 -352 -13 -2 -26 -5 -27 -7 -2 -1 35 -17
81 -35 56 -21 93 -42 110 -61 13 -17 27 -30 30 -30 3 0 16 11 30 23 14 13 37
32 51 43 15 10 37 28 49 39 33 29 77 66 114 97 l32 27 -32 38 c-18 21 -43 47
-55 58 -21 20 -47 83 -57 136 -3 13 -5 24 -6 24 -1 0 -4 11 -6 25 -8 47 -47
185 -53 190 -4 3 -17 28 -31 55 -14 28 -28 52 -32 53 -5 2 -8 10 -8 18 0 8 -3
14 -7 14 -5 1 -28 30 -53 65 -45 64 -67 77 -89 51z"/>
</g>
</svg>
